<?xml version="1.0" encoding="utf-8"?>
<svg version="1.1" id="Layer_1"	xmlns="http://www.w3.org/2000/svg" x="0px" y="0px" viewBox="0 0 318.6 318.6" style="enable-background:new 0 0 318.6 318.6;" xml:space="preserve">
  <style type="text/css">
    .st0{fill:#161616;stroke:#161616;}
    .st1{fill:#E4761B;stroke:#E4761B;stroke-linecap:round;stroke-linejoin:round;}
    .st2{fill:#763D16;stroke:#763D16;stroke-linecap:round;stroke-linejoin:round;}
    .st3{fill:#F6851B;stroke:#F6851B;stroke-linecap:round;stroke-linejoin:round;}
    .st4{fill:#E2761B;stroke:#E2761B;stroke-linecap:round;stroke-linejoin:round;}
    .st5{fill:#CD6116;stroke:#CD6116;stroke-linecap:round;stroke-linejoin:round;}
    .st6{fill:#C0AD9E;stroke:#C0AD9E;stroke-linecap:round;stroke-linejoin:round;}
    .st7{fill:#D7C1B3;stroke:#D7C1B3;stroke-linecap:round;stroke-linejoin:round;}
    .st8{fill:#E4751F;stroke:#E4751F;stroke-linecap:round;stroke-linejoin:round;}
    .st9{fill:#233447;stroke:#233447;stroke-linecap:round;stroke-linejoin:round;}
    .st10{fill:#161616;stroke:#161616;stroke-linecap:round;stroke-linejoin:round;}
  </style>
  <g transform="translate(0.000000,320.00000) scale(0.0508744038,-0.0508744038)" class="st5">
    <path d="M2500 5074 c-100 -27 -250 -108 -250 -136 0 -7 30 -9 89 -6 98 6 184 38 249 92 67 58 27 81 -88 50z"/>
    <path d="M3290 5082 c-19 -9 -129 -109 -245 -223 -302 -295 -399 -361 -650 -442 -180 -58 -262 -72 -427 -72 -159 0 -174 4 -221 67 -29 39 -17 78 58 192 106 160 82 164 -69 12 -331 -333 -549 -775 -453 -916 49 -74 200 -129 412 -150 394 -41 985 92 1445 326 164 83 279 160 420 280 144 123 383 361 439 436 74 100 99 205 67 282 -40 96 -217 163 -545 206 -184 24 -187 24 -231 2z"/>
    <path d="M4761 4028 c-67 -140 -149 -249 -300 -398 -307 -303 -767 -596 -1262 -805 -476 -201 -1013 -303 -1440 -275 -168 12 -256 29 -417 82 -67 23 -125 38 -129 35 -12 -12 40 -144 126 -322 239 -492 354 -584 756 -602 535 -24 1289 186 1947 542 522 283 893 624 995 917 43 122 30 283 -43 543 -55 193 -134 377 -166 383 -13 3 -29 -22 -67 -100z"/>
    <path d="M3370 3944 c-471 -309 -1103 -494 -1692 -494 -203 0 -224 -6 -304 -93 -48 -52 -79 -98 -114 -172 -64 -132 -81 -202 -78 -317 l3 -91 110 -39 c206 -74 479 -134 562 -125 56 6 119 37 304 153 200 125 568 337 789 453 357 189 478 273 556 389 24 34 50 86 59 115 23 75 30 222 13 272 -21 64 -42 59 -208 -51z"/>
    <path d="M4908 2508 c-24 -29 -59 -73 -78 -98 -220 -292 -594 -561 -1000 -719 -382 -148 -736 -213 -1266 -231 -149 -5 -281 -13 -295 -18 -23 -9 -23 -10 16 -29 84 -43 331 -118 505 -153 412 -84 955 28 1360 279 234 146 430 339 593 586 85 130 228 418 213 432 -2 2 -24 -20 -48 -49z"/>
  </g>
  <g transform="translate(0.000000,318.600000) scale(0.0505564388,-0.0505564388)" class="st8">
    <path d="M2500 5074 c-100 -27 -250 -108 -250 -136 0 -7 30 -9 89 -6 98 6 184 38 249 92 67 58 27 81 -88 50z"/>
    <path d="M3290 5082 c-19 -9 -129 -109 -245 -223 -302 -295 -399 -361 -650 -442 -180 -58 -262 -72 -427 -72 -159 0 -174 4 -221 67 -29 39 -17 78 58 192 106 160 82 164 -69 12 -331 -333 -549 -775 -453 -916 49 -74 200 -129 412 -150 394 -41 985 92 1445 326 164 83 279 160 420 280 144 123 383 361 439 436 74 100 99 205 67 282 -40 96 -217 163 -545 206 -184 24 -187 24 -231 2z"/>
    <path d="M4761 4028 c-67 -140 -149 -249 -300 -398 -307 -303 -767 -596 -1262 -805 -476 -201 -1013 -303 -1440 -275 -168 12 -256 29 -417 82 -67 23 -125 38 -129 35 -12 -12 40 -144 126 -322 239 -492 354 -584 756 -602 535 -24 1289 186 1947 542 522 283 893 624 995 917 43 122 30 283 -43 543 -55 193 -134 377 -166 383 -13 3 -29 -22 -67 -100z"/>
    <path d="M3370 3944 c-471 -309 -1103 -494 -1692 -494 -203 0 -224 -6 -304 -93 -48 -52 -79 -98 -114 -172 -64 -132 -81 -202 -78 -317 l3 -91 110 -39 c206 -74 479 -134 562 -125 56 6 119 37 304 153 200 125 568 337 789 453 357 189 478 273 556 389 24 34 50 86 59 115 23 75 30 222 13 272 -21 64 -42 59 -208 -51z"/>
    <path d="M4908 2508 c-24 -29 -59 -73 -78 -98 -220 -292 -594 -561 -1000 -719 -382 -148 -736 -213 -1266 -231 -149 -5 -281 -13 -295 -18 -23 -9 -23 -10 16 -29 84 -43 331 -118 505 -153 412 -84 955 28 1360 279 234 146 430 339 593 586 85 130 228 418 213 432 -2 2 -24 -20 -48 -49z"/>
  </g>
</svg>
